# xmcd
#
# Track frame offsets:
#	150
#	18973
#	40168
#	56619
#	79665
#	96253
#	114661
#	134641
#	151201
#	171138
#	182954
#	194602
#	208597
#	222722
#	241502
#	255679
#	263089
#	280729
#
# Disc length: 3867 seconds
#
# Revision: 1
# Processed by: cddbd v1.5.2PL0 Copyright (c) Steve Scherf et al.
# Submitted via: audiograbber 1.83.01
#
DISCID=050f1912
DTITLE=Priddis Sampler - Sampler 2002
DYEAR=1900
DGENRE=
TTITLE0=Backstreet Boys - Quit Playing Games with My Heart
TTITLE1=Brittney Spears - Sometimes
TTITLE2=Christina Aguilera - Come On Over
TTITLE3=Ricky Martin - Cup of Life
TTITLE4=Smash mouth - All Star
TTITLE5=Dixie Chicks - Ready to Run
TTITLE6=Shania Twain - Any Man of Mine
TTITLE7=Tim McGraw - Just to See You Smile
TTITLE8=Garth Brooks - Friends in Low Places
TTITLE9=Elvis Presley - Return to Sender
TTITLE10=Beatles - Can't Buy Me Love
TTITLE11=Frank Sinatra - All The Way
TTITLE12=Supremes - You Can't Hurry Love
TTITLE13=Katrina and the Waves - Walking on Sunshine
TTITLE14=Carpenters - Top of The World
TTITLE15=Wizard of Oz - We're Off To See The Wizard
TTITLE16=Traditional - Old McDonald
TTITLE17=Traditional - Bunny Hop
EXTD=
EXTT0=
EXTT1=
EXTT2=
EXTT3=
EXTT4=
EXTT5=
EXTT6=
EXTT7=
EXTT8=
EXTT9=
EXTT10=
EXTT11=
EXTT12=
EXTT13=
EXTT14=
EXTT15=
EXTT16=
EXTT17=
PLAYORDER=
